<svg xmlns="http://www.w3.org/2000/svg" fill="none" viewBox="0 0 132 26">
  <defs/>
  <g fill="#464554" clip-path="url(#clip0)">
    <path d="M49.36 10.86a.7.7 0 00-.23-.06c-.19-.01-.37.03-.53.1a1.7 1.7 0 00-.25.11c-.15.07-.29.16-.41.27a8.4 8.4 0 00-1.81 2.37c-.22.42-.41.86-.58 1.3-.16.44-.3.88-.43 1.3-.02.14-.02.28 0 .42.05.36.24.55.53.57.15 0 .29-.01.43-.05.45-.13.87-.35 1.23-.65.35-.3.64-.66.87-1.06.1-.17.19-.35.28-.54.46-.86.9-1.74 1.31-2.6a1.17 1.17 0 00-.21-1.3.79.79 0 00-.2-.18zM26.18 10.32a.7.7 0 00-.65-.17 4.27 4.27 0 00-1.47.94c-1.1 1.2-1.9 2.63-2.36 4.18a4.51 4.51 0 00-.19 1.9.69.69 0 00.62.46c.2 0 .38-.04.55-.13.26-.13.5-.28.72-.46l.71-.53-.22-.43-.05-.1a1.66 1.66 0 01.34-1.68 1.56 1.56 0 01.97-.5.76.76 0 00.61-.34l.1-.23c0-.08.05-.17.09-.25l.2-.5.06-.25c.05-.24.1-.5.13-.74.03-.25.03-.5 0-.74a.72.72 0 00-.16-.43z"/>
    <path d="M131.18 14.2a2.6 2.6 0 00-1.31-1.76c-.4-.32-.9-.51-1.41-.56-.4-.03-.81.04-1.19.2.07-.76.22-1.5.44-2.23a2.1 2.1 0 00-.73-2.32c-.23-.18-.5-.3-.78-.38l-2.54-.7a2.17 2.17 0 00-2.37.92l-.54.88c-.37.58-.71 1.14-1.07 1.67l-.6.9a4.55 4.55 0 00-1.09-1.26c-.24-.2-.5-.4-.75-.58a2.1 2.1 0 00-.57-2.6 4.5 4.5 0 00-2.44-1.13 3.97 3.97 0 00-3.13 1.4 4.9 4.9 0 00-.9 1.21 5.35 5.35 0 00-2.4-1.1 7.23 7.23 0 00-4.55.58 9.6 9.6 0 00-2.86 2.03 3.9 3.9 0 00-3.58-2.8h-.5c-1.04.02-2.05.32-2.92.86l-.86-.3-.66-.22a2.17 2.17 0 00-2.63 1.05c-.13.28-.28.55-.42.82a3.87 3.87 0 00-3.38-2.28h-.49c-1.04 0-2.05.3-2.93.86l-.87-.3-.66-.22c-.17-.06-.36-.1-.54-.12-.34-.02-.68.03-1 .16a3.51 3.51 0 00-.52-3.8 3.74 3.74 0 00-2.59-1.3h-.21A3.96 3.96 0 0071.6 5.2a3.6 3.6 0 00.47 2.18c-.27.25-.5.55-.65.88l-.78 1.49-.25.5a4.64 4.64 0 00-.84-.94l-.8-.65v-.03a2.11 2.11 0 00-.53-2.6 4.55 4.55 0 00-2.5-1.17c-.2-.02-.4-.02-.6 0a2.13 2.13 0 00-1.97-2.19h-1.92c-1.27 0-2.12.13-2.81.81a2.17 2.17 0 00-1.56-.88h-2.54a2.84 2.84 0 00-2.83 1.66c-.38.8-.8 1.6-1.2 2.38a4.3 4.3 0 00-1.31-.3 5.5 5.5 0 00-2.96.65c-.54.27-1.05.61-1.5 1.01-.1-.28-.26-.53-.46-.75a2.19 2.19 0 00-2.3-.53l-2.14.77a4.17 4.17 0 00-2.66-1.21 6.38 6.38 0 00-4.62 1.65c-.5.43-.95.9-1.36 1.42a4.86 4.86 0 00-3.5-3.06 7.54 7.54 0 00-4.66.41c-.01-1.11-.34-2.2-.96-3.13a6.76 6.76 0 00-3.7-2.6C16.76.5 15.28.2 13.78.07c-2.2-.17-4.42.03-6.55.59-1.99.43-3.8 1.4-5.25 2.81a6.77 6.77 0 00-1.6 6.88 4.55 4.55 0 004.02 3h.2l-.84 2.12A32 32 0 003 17.69l-.14.45a3.06 3.06 0 00.3 2.72 2.71 2.71 0 002.09 1.19c.4.02.82-.02 1.21-.14.3-.09.66-.17 1-.25l.6-.14a3.42 3.42 0 002.43-2.38l.26-.73a4.53 4.53 0 003.03 3.9c.64.2 1.3.33 1.97.38 1.89.14 3.38-.3 4.27-1.24.46.15.92.24 1.4.27h.5a7.88 7.88 0 005.17-1.82c.4-.33.52-.35.72-.37.2-.01.36-.04.54-.06a4.02 4.02 0 003.34 2.25c.54.04 1.08-.01 1.6-.15.57-.17 1.12-.4 1.63-.7.66.5 1.45.79 2.27.84h.44c1.31 0 2.6-.38 3.7-1.1a4.02 4.02 0 002.5 1.13c1.1.05 2.18-.2 3.13-.74l.12-.07c.64.47 1.4.75 2.2.8a7.1 7.1 0 003.94-1c.58.5 1.3.82 2.07.92l.44.05c.53.04 1.06.02 1.58-.07a8.95 8.95 0 004.76-2.66 3.83 3.83 0 002.77 2.6 5.49 5.49 0 004.22-.63c.53.38 1.14.62 1.78.71l-.36.71a2.12 2.12 0 00.76 2.75c.3.19.63.3.98.33h2.58a2.88 2.88 0 002.81-1.66l1.32-2.6a7.72 7.72 0 003.24.5l-.3.6a2.12 2.12 0 00.75 2.75c.3.19.64.3.99.33H86.25a2.86 2.86 0 002.77-1.63l1.26-2.49c.55.2 1.12.33 1.7.38h.16c2.26.18 4.52-.38 6.42-1.6.8.79 1.83 1.31 2.95 1.48a10.36 10.36 0 006.77-1.17c.82-.43 1.58-.96 2.29-1.56a3.8 3.8 0 002.82 2.7 5.37 5.37 0 004.52-.83c.37.24.77.43 1.18.56.66.21 1.35.35 2.04.41a9.12 9.12 0 006.32-2c1.21-.97 2.28-2.1 3.17-3.36a2.59 2.59 0 00.56-2.05zM73.94 4.78a1.84 1.84 0 011.65-.92h.1l.32.06c.3.08.56.24.76.46a1.4 1.4 0 01.38 1.1 1.6 1.6 0 01-.2.64 1.92 1.92 0 01-1.67.98h-.12a1.7 1.7 0 01-.6-.17 1.5 1.5 0 01-.83-1.5c.02-.23.1-.45.21-.65zM18.73 19.5a1.22 1.22 0 01-.7.78c-.38.17-.8.26-1.21.27h-.89c-.3 0-.57-.06-.81-.1l-.34-.09-.26-.07a2.37 2.37 0 01-.75-.4 2.38 2.38 0 01-.7-1.04 3.43 3.43 0 01-.19-1.4c.05-1.04.2-2.08.24-3.12.01-.45-.05-.9-.17-1.33a1.6 1.6 0 00-.59-.81 1.88 1.88 0 00-.68-.33l-.25-.04c-.1-.01-.19-.01-.28 0-.14 0-.32.21-.38.36L9.61 15.3a221.44 221.44 0 00-1.28 3.5 1.15 1.15 0 01-.8.65c-.57.13-1.15.25-1.71.41-.14.05-.28.07-.42.06a.59.59 0 01-.42-.2 1 1 0 01-.05-.94l.3-.98c.16-.52.33-1.05.54-1.56.65-1.73 1.37-3.45 2.06-5.2s1.39-3.45 2.05-5.2a3.9 3.9 0 012.73-2.4l.25-.09.37-.12-.77-.03a13.68 13.68 0 00-4.15.53c-.75.22-1.46.54-2.12.95-.53.37-.98.86-1.31 1.42a1.07 1.07 0 00.3 1.5l.55.45.18.15a1.9 1.9 0 01.65 1.55c-.02.19-.09.36-.18.53a1.9 1.9 0 01-1.77.95H4.6a2.4 2.4 0 01-1.97-1.14c-.4-.7-.55-1.5-.43-2.29a4.9 4.9 0 011.36-2.84A8.45 8.45 0 016.6 3.05a17.68 17.68 0 016.98-.88 17.29 17.29 0 013.94.78c1.03.28 1.94.9 2.56 1.78a3.68 3.68 0 01.45 3.17c-.2.65-.57 1.23-1.07 1.7a7.7 7.7 0 01-1.57 1.15c-.94.52-1.97.88-3.04 1.07.04.06.06.12.1.15 1.34.85 1.7 2.15 1.63 3.64-.03.75-.02 1.5.05 2.24a2 2 0 00.1.45c.09.28.26.52.5.7.13.08.27.14.42.18h.12c.26 0 .57-.07.77-.05a.21.21 0 01.18.08.35.35 0 010 .29zm110.19-4.55c-.2.27-.4.55-.66.81-.25.27-.42.54-.65.8-.46.52-.97 1-1.52 1.42a8.62 8.62 0 01-2.34 1.27c-.4.13-.81.22-1.23.28a6.74 6.74 0 01-2.82-.31 8.89 8.89 0 01-1.62-.94l.49-.28c.45-.25.84-.46 1.23-.64a.21.21 0 01.12 0c.1.01.2.04.29.09l.28.11c.09.03.18.05.27.05a1.02 1.02 0 001.06-.71 6.27 6.27 0 00.38-1.92l.22-2.77-.17-.04-.29.43-1.6 2.3c-.55.76-1.1 1.52-1.68 2.26a9.44 9.44 0 01-2.49 2.08 3.3 3.3 0 01-1.7.33l-.27-.04c-.1-.01-.21-.03-.31-.06-.2-.04-.4-.12-.57-.23a1.63 1.63 0 01-.58-.6 2 2 0 01-.22-.82c-.01-.5.06-.99.22-1.46.16-.48.36-.94.6-1.39.28-.57.56-1.16.9-1.72a.97.97 0 00.01-1.14.98.98 0 00-.3-.28l-.43-.37c-.61.95-1.18 1.9-1.81 2.8a13 13 0 01-4.5 4.27c-.36.2-.74.36-1.12.52-.55.2-1.13.36-1.72.44-.19 0-.38.06-.57.08-.4.02-.79.02-1.18 0-.23 0-.46-.06-.66-.1h-.09a3.41 3.41 0 01-1.34-.5c-.49-.3-.85-.78-1.02-1.34a3.58 3.58 0 01-.1-.48c0-.08 0-.16-.06-.24a1.2 1.2 0 00-.09-.1c-1.96 1.86-4.22 2.97-6.97 2.76h-.14a6.07 6.07 0 01-.7-.12 2.87 2.87 0 01-1.73-1.1l.99-.8c.24.15.51.25.8.3a1.01 1.01 0 00.78-.35l.3-.31a11.67 11.67 0 002.83-5.34v-.28c-.04-.36-.2-.57-.5-.59-.13 0-.26.01-.38.05a3.95 3.95 0 00-2.42 1.95c-1.32 2.45-2.55 4.91-3.8 7.38l-1.27 2.47a1 1 0 01-.14.23.65.65 0 01-.66.23h-2.5c.44-.88.89-1.75 1.3-2.6l1.32-2.6c-.44.25-.87.47-1.31.65-.63.3-1.3.53-1.97.7a5.93 5.93 0 01-4.98-.99l.38-.3.28-.24.5-.4c.13.1.27.18.42.25.1.06.22.1.34.1.07.02.14.02.2 0 .27-.1.5-.26.66-.48a11.3 11.3 0 003.01-5.45c.03-.13.05-.27.04-.4 0-.11-.02-.22-.07-.31a.53.53 0 00-.46-.29c-.26 0-.52.06-.76.18a4.42 4.42 0 00-2.05 1.9l-2.53 4.93-2.51 4.95c-.04.09-.1.17-.15.24a.59.59 0 01-.4.22H72.3l1.85-3.64.66-1.26-.4.25-.33.2c-.57.36-1.22.6-1.89.7-.22.02-.43.02-.65 0h-.04a1.85 1.85 0 01-1.84-1.73l-.7.56-.65.52a3.9 3.9 0 01-1.67.65 3.57 3.57 0 01-1.15-.1 1.75 1.75 0 01-1.36-1.7c.02-1.04.3-2.06.8-2.96.3-.6.6-1.2.91-1.78l.12-.22c.05-.13.08-.26.09-.4a.88.88 0 00-.08-.37 1.26 1.26 0 00-.39-.48l-.46-.41c-.14.24-.27.46-.4.65-.26.46-.54.93-.82 1.38a24.8 24.8 0 01-2.43 3.33l-.5.57a12.23 12.23 0 01-1.75 1.52 5.85 5.85 0 01-2.69.93H56l-.28-.03a1.86 1.86 0 01-.4-.1 1.64 1.64 0 01-.66-.35 2.16 2.16 0 01-.61-1.65l-.55.48-.53.43a5.92 5.92 0 01-2.65 1.22l-.43.04a2.7 2.7 0 01-1.06-.14 1.97 1.97 0 01-.73-.53c-.23-.27-.4-.58-.5-.91-.28.18-.54.38-.8.56-.26.2-.54.37-.83.52-.6.35-1.27.53-1.97.5a1.78 1.78 0 01-1.3-.69 2.81 2.81 0 01-.54-1.22 4.37 4.37 0 01-.08-.53c-.46.42-.84.83-1.3 1.18a7.68 7.68 0 01-1.5.9 4.38 4.38 0 01-1.24.33h-.65a2.93 2.93 0 01-.66-.15c-.2-.07-.37-.17-.53-.3a2.5 2.5 0 01-.66-1.18l-.37.32c-.12.1-.25.2-.39.27l-.98.55a5.1 5.1 0 01-1.52.5h-.42a1.98 1.98 0 01-.39-.07 2.1 2.1 0 01-1.44-2.19v-.34-.3l-.61.2c-.4.16-.8.3-1.22.41-.2.05-.4.08-.6.1-.53.03-1.05.21-1.49.52-.15.1-.3.2-.44.33-.65.55-1.42.94-2.25 1.16l-.5.1c-.34.05-.68.08-1.03.07h-.35a3.97 3.97 0 01-1.2-.27 2.73 2.73 0 01-1.63-1.91l-.06-.25a3.63 3.63 0 01-.06-.55c-.02-.73.08-1.45.29-2.15.29-1.01.73-1.97 1.3-2.86a7.94 7.94 0 013.29-2.95 5.73 5.73 0 012.62-.5c.27.02.53.07.8.13a2.77 2.77 0 011.9 1.52c.22.5.32 1.04.3 1.58 0 .7-.07 1.4-.23 2.09-.21.67-.48 1.32-.8 1.95-.1.16-.16.32-.32.65l.4-.14a4.49 4.49 0 002.98-2.58c.3-.72.67-1.42 1.1-2.07.44-.67.97-1.28 1.57-1.8.32-.3.68-.54 1.06-.73.39-.2.8-.32 1.23-.37a3.22 3.22 0 011.06.04 2.37 2.37 0 011.53 1.22l.2.37 3.65-1.3c-.12.28-.2.48-.3.65-1.04 2.08-2.08 4.15-3.1 6.23a7.9 7.9 0 00-.55 1.5l-.04.27a.4.4 0 00.16.35.3.3 0 00.19.06c.16 0 .32-.03.47-.1.37-.16.7-.38 1-.65a12.24 12.24 0 003.06-3.87 10.07 10.07 0 012.5-3.54 5.53 5.53 0 011.12-.76 4.24 4.24 0 011.38-.42h.42a2.37 2.37 0 011.23.45c.39.3.7.69.91 1.13l.79-1.51c.57-1.12 1.15-2.22 1.69-3.35a.65.65 0 01.51-.44h2.76c0 .07-.07.13-.1.2l-.17.34a3827.6 3827.6 0 01-5.24 10.32 8.23 8.23 0 00-.55 1.52.8.8 0 000 .47.34.34 0 00.3.2c.13 0 .27-.04.4-.11.57-.28 1.1-.63 1.57-1.05.94-.89 1.77-1.88 2.47-2.97l.65-1.11c.31-.65.62-1.24.94-1.87l.97-1.9h-1.84c.26-.49.45-.9.7-1.3a.4.4 0 01.24-.15h.14a2.02 2.02 0 00.71.06 1.4 1.4 0 001-.55c.2-.26.37-.55.49-.86.51-1.2.59-1.18 1.9-1.17h1.73L61.7 7.3h1.76L63.1 8l-.36.7H61.38a.88.88 0 00-.4.18.38.38 0 00-.09.1c-1.15 2.25-2.3 4.53-3.43 6.8-.12.26-.22.52-.3.8l-.12.49a.85.85 0 000 .25.44.44 0 00.2.34c.06.04.12.06.2.07.12 0 .25-.03.36-.09l.52-.26c.49-.26.95-.58 1.37-.95 1.01-.96 1.9-2.05 2.62-3.25.25-.38.49-.78.72-1.17l.11-.2.35-.58c.13-.17.23-.36.32-.55a.92.92 0 00.06-.37.81.81 0 00-.12-.4 1 1 0 00-.13-.17.8.8 0 01-.09-.65c0-.08 0-.18.05-.27.1-.32.25-.62.46-.89.29-.4.69-.73 1.16-.91.12-.04.25-.05.38-.04.1.01.2.03.29.06a3 3 0 01.99.6l-.32.66-.35.65a.65.65 0 00-.07.17c-.04.16 0 .28.2.41.65.46 1.25.92 1.84 1.42a1.94 1.94 0 01.5 2.57c-.57 1.1-1.04 2.25-1.53 3.37a1.1 1.1 0 00-.07.5c0 .25.15.4.33.42.12 0 .24-.04.34-.11a6.22 6.22 0 001.22-1l.75-.87a14.65 14.65 0 001.79-2.83c.3-.65.65-1.3.94-1.9.3-.59.66-1.25.97-1.88a.65.65 0 01.65-.38h2.59l-.23.48-1.67 3.19c-.55 1.07-1.1 2.13-1.6 3.25-.23.5-.4 1.02-.5 1.56a.53.53 0 000 .36.32.32 0 00.24.15h.16l.17-.07.24-.13c.22-.12.44-.24.65-.38.29-.18.56-.38.8-.61.3-.29.6-.58.88-.88.83-.89 1.52-1.9 2.05-3 .62-1.3 1.31-2.55 1.97-3.9l1.07.37 1.03.38c.1.04.18.06.28.07a.74.74 0 00.54-.2 3.68 3.68 0 012.54-.83 1.82 1.82 0 011.73 1.4 4 4 0 01-.04 2.29 13.83 13.83 0 01-1.41 3.2 16.8 16.8 0 01-1.55 2.17l-.12.14-.18.23a7.47 7.47 0 002.56-1.49l.82-.76a10.54 10.54 0 001.91-2.63c.34-.7.7-1.4 1.06-2.1l1.11-2.15c.72.25 1.42.48 2.1.74.1.03.2.06.3.06a.7.7 0 00.52-.19 3.87 3.87 0 012.24-.82h.3c.4 0 .8.13 1.12.35.3.27.52.63.62 1.03.22 1.03.11 2.1-.32 3.06-.3.81-.69 1.6-1.14 2.33-.46.76-.97 1.47-1.54 2.15l-.23.27.08.11c.57-.28 1.12-.6 1.65-.94a10.08 10.08 0 003.4-3.83 8.1 8.1 0 013.88-4.02 5.21 5.21 0 013.2-.42c.6.1 1.15.36 1.59.77a2 2 0 01.5.87c.12.57.06 1.16-.17 1.7a4.95 4.95 0 01-1.9 2.48c-.94.6-2.03.9-3.13.88h-1.5a.35.35 0 00-.3.07.56.56 0 00-.12.28c-.24 1.17.27 1.86 1.51 1.95h.16c.54.02 1.08-.05 1.6-.2a6.7 6.7 0 001.5-.62c.89-.5 1.69-1.14 2.38-1.89.41-.46.8-.96 1.14-1.48.6-.88 1.14-1.8 1.69-2.7a.54.54 0 00.05-.37.22.22 0 00-.05-.1 1.36 1.36 0 01-.38-.93 2.14 2.14 0 01.35-1 4.02 4.02 0 01.85-.86c.1-.08.22-.16.35-.22.17-.09.37-.13.57-.13.2.03.4.1.58.2.24.13.48.29.69.47l-.32.6c-.1.21-.22.43-.35.66a.93.93 0 00-.07.17.26.26 0 00.06.27c.04.05.08.1.14.13.31.22.65.44.93.65.28.2.62.46.91.7.2.15.36.33.5.53.18.27.28.58.28.9 0 .24-.05.47-.13.7-.05.12-.1.24-.17.36-.55 1.06-1.02 2.16-1.51 3.25a.97.97 0 00-.07.43v.18a.34.34 0 00.3.26c.14 0 .28-.03.38-.12.46-.27.87-.6 1.24-.98 1.62-1.71 2.77-3.7 4.05-5.6.28-.42.55-.85.82-1.3.27-.46.54-.88.82-1.3l2.55.7c-.86 2.7-.53 5.4-.86 8.14.17-.1.33-.2.48-.33l1.28-1.35c.41-.45.83-.9 1.23-1.37l.25-.23a.38.38 0 01.25-.07c.1.01.2.06.28.13l.22.15c.21.15.43.32.12.68h.02z"/>
    <path d="M17.01 6.24A2.5 2.5 0 0017 5.2a1.94 1.94 0 00-.97-1.3c-.2-.15-.45-.26-.7-.3a.58.58 0 00-.42.13c-.17.13-.32.3-.43.48a3.6 3.6 0 00-.45.68c-.8 1.7-1.6 3.4-2.36 5.1-.36.77-.26 1.13.33 1.17h.63a4.7 4.7 0 002.68-1.3c1-.96 1.6-2.25 1.7-3.62zM37.24 10.78a.85.85 0 00-.23-.04c-.17-.01-.34.01-.5.07a2.23 2.23 0 00-.72.43 8.91 8.91 0 00-2.1 3.01c-.26.64-.48 1.3-.65 1.95-.06.65.13.98.52 1.01.15 0 .3-.01.43-.06a3.56 3.56 0 002.13-1.8c.26-.48.51-.98.76-1.47l.73-1.48a1.19 1.19 0 00-.16-1.5.91.91 0 00-.2-.12zM104.17 13.98c.47-.02.92-.2 1.27-.52a6.45 6.45 0 001.07-1.42c.04-.08.1-.16.13-.25a.65.65 0 00.07-.26.4.4 0 00-.18-.36.35.35 0 00-.11-.06h-.15c-.4.01-.78.12-1.13.31a5.98 5.98 0 00-1.65 1.81l-.41.71c.18.04.37.07.55.08.18 0 .36 0 .54-.04z"/>
  </g>
  <defs>
    <clipPath id="clip0">
      <path fill="#fff" d="M0 0h131.18v26H0V0z"/>
    </clipPath>
  </defs>
</svg>